<?xml version="1.0" standalone="no"?>
<!DOCTYPE svg PUBLIC "-//W3C//DTD SVG 20010904//EN"
 "http://www.w3.org/TR/2001/REC-SVG-20010904/DTD/svg10.dtd">
<svg version="1.0" xmlns="http://www.w3.org/2000/svg"
 width="1197.000000pt" height="614.000000pt" viewBox="0 0 1197.000000 614.000000"
 preserveAspectRatio="xMidYMid meet">

<g transform="translate(0.000000,614.000000) scale(0.100000,-0.100000)"
fill="#000000" stroke="none">
<path d="M2 4628 c1 -832 3 -1495 5 -1472 4 35 8 41 36 50 59 17 63 101 6 132
-30 17 -30 19 -25 72 3 30 13 101 22 158 17 100 17 102 44 102 67 0 93 89 40
133 l-30 26 48 148 48 148 37 3 c70 6 100 80 52 128 l-25 25 71 140 72 139 33
-6 c28 -5 38 -1 64 24 35 35 38 60 10 94 l-19 25 49 72 c27 40 70 99 95 131
39 51 49 59 65 50 31 -16 59 -12 85 15 27 26 32 64 13 95 -12 18 -2 30 98 131
l111 111 36 -13 c67 -24 124 28 100 92 -11 29 -10 30 65 87 184 138 181 136
203 116 50 -45 124 -5 124 68 l0 41 137 71 136 71 24 -22 c51 -48 123 -16 130
57 l3 34 147 51 146 50 22 -28 c42 -53 130 -25 130 42 0 32 -13 28 190 66 89
17 126 21 129 13 9 -27 52 -58 79 -58 37 0 61 18 70 55 8 27 13 31 58 36 27 3
-623 7 -1443 7 l-1493 2 2 -1512z"/>
<path d="M3210 6125 c0 -21 35 -53 66 -61 30 -8 72 19 85 54 8 22 7 22 -71 22
-64 0 -80 -3 -80 -15z"/>
<path d="M3525 6129 c157 -16 165 -18 165 -43 0 -32 40 -66 77 -66 23 0 39 9
58 31 l26 32 77 -17 c42 -9 111 -26 153 -37 73 -20 76 -22 77 -51 1 -43 28
-68 73 -68 28 0 42 6 57 25 l20 25 79 -29 c43 -16 109 -43 148 -59 65 -28 70
-32 67 -59 -2 -18 5 -39 18 -56 27 -34 80 -37 110 -7 l21 21 92 -52 c51 -29
113 -66 138 -83 41 -27 45 -34 38 -55 -12 -31 8 -72 44 -89 23 -11 32 -11 62
4 42 20 40 21 192 -105 88 -72 90 -75 80 -102 -15 -38 0 -79 35 -99 23 -12 32
-13 60 -2 l33 13 86 -90 c48 -49 98 -105 113 -124 26 -34 26 -35 9 -65 -21
-36 -9 -71 33 -98 21 -15 31 -16 56 -6 l29 11 85 -128 c46 -71 84 -133 84
-138 0 -6 -7 -16 -15 -23 -9 -7 -15 -29 -15 -51 0 -51 32 -82 78 -77 31 4 35
1 57 -41 12 -25 42 -90 65 -144 l42 -98 -26 -24 c-51 -47 -17 -135 52 -135 28
0 30 -3 55 -92 14 -51 31 -119 38 -150 l12 -57 -32 -30 c-18 -17 -31 -39 -31
-54 0 -34 36 -77 66 -77 16 0 25 -7 29 -22 8 -37 25 -214 25 -260 0 -39 -3
-45 -29 -54 -59 -23 -56 -125 5 -140 l27 -7 -7 -141 c-8 -171 -11 -186 -41
-186 -28 0 -65 -43 -65 -77 0 -23 40 -73 58 -73 11 0 2 -54 -35 -203 -26 -105
-27 -107 -55 -107 -38 0 -78 -40 -78 -78 0 -18 10 -39 27 -56 l26 -26 -28 -73
c-16 -39 -43 -104 -61 -144 -31 -69 -33 -71 -69 -71 -20 0 -45 -8 -56 -18 -26
-23 -26 -85 0 -108 19 -17 19 -19 -23 -89 -23 -40 -61 -102 -85 -139 -40 -63
-44 -66 -66 -56 -34 15 -80 -6 -96 -43 -12 -30 -11 -32 19 -90 4 -8 -84 -117
-151 -186 -49 -51 -51 -52 -97 -46 -40 5 -51 2 -69 -16 -22 -22 -29 -79 -11
-97 11 -11 -42 -66 -159 -162 -69 -58 -75 -61 -94 -47 -29 21 -70 19 -98 -4
-20 -16 -24 -28 -22 -65 l1 -45 -91 -59 c-51 -32 -109 -68 -130 -80 l-39 -22
-25 20 c-53 42 -123 8 -123 -59 l0 -38 -97 -45 c-54 -25 -119 -53 -144 -62
l-46 -18 -26 26 c-32 32 -68 33 -103 3 -19 -17 -27 -33 -26 -55 0 -18 -1 -32
-3 -32 -2 0 -59 -15 -126 -34 -167 -45 -189 -49 -189 -32 0 23 -36 46 -73 46
-27 0 -41 -7 -56 -26 -12 -15 -21 -35 -21 -44 0 -12 -10 -20 -32 -24 -40 -7
-283 -35 -283 -33 0 1 -7 15 -15 32 -22 42 -72 55 -108 28 -15 -11 -28 -29
-30 -41 -2 -15 -12 -22 -35 -25 -18 -2 814 -4 1848 -5 1228 -1 1874 2 1863 8
-23 14 -41 74 -33 110 9 39 40 60 90 60 50 0 81 -21 90 -60 8 -36 -10 -96 -33
-110 -11 -6 808 -9 2363 -9 2005 0 2377 2 2362 13 -41 31 -39 134 3 156 10 5
39 10 64 10 36 0 48 -5 65 -26 l21 -27 0 136 0 136 -25 -24 c-28 -29 -97 -34
-128 -11 -41 31 -39 134 3 156 10 5 39 10 64 10 36 0 48 -5 65 -26 l21 -27 0
136 0 136 -25 -24 c-28 -29 -97 -34 -128 -11 -41 31 -39 134 3 156 36 19 99
12 125 -15 l25 -24 0 139 0 139 -25 -24 c-26 -27 -89 -34 -125 -15 -42 22 -44
125 -3 156 31 23 100 18 128 -11 l25 -24 0 140 0 140 -23 -27 c-18 -21 -32
-27 -63 -27 -55 0 -81 17 -93 58 -13 48 2 99 35 113 43 20 92 15 119 -13 l25
-24 -1 142 c0 108 -3 137 -11 120 -22 -45 -117 -52 -154 -12 -24 26 -23 102 1
129 38 42 130 34 153 -13 8 -17 11 12 11 117 l1 139 -20 -25 c-25 -32 -71 -42
-114 -24 -59 25 -70 116 -18 156 40 32 107 23 139 -19 10 -13 12 12 12 124 0
108 -3 135 -11 117 -13 -27 -72 -45 -113 -34 -38 10 -68 64 -59 107 15 79 121
101 171 36 10 -13 12 12 12 124 0 106 -3 135 -11 118 -22 -45 -117 -52 -154
-12 -11 12 -17 36 -17 66 0 38 5 50 27 70 43 37 122 26 144 -21 8 -16 11 11
11 106 l1 127 -25 -24 c-26 -27 -89 -34 -125 -15 -42 22 -44 125 -3 156 31 23
100 18 128 -11 l25 -24 0 134 0 134 -25 -24 c-26 -27 -89 -34 -125 -15 -42 22
-44 125 -3 156 31 23 100 18 128 -11 l25 -24 0 136 0 136 -21 -27 c-17 -21
-29 -26 -65 -26 -25 0 -54 5 -64 10 -42 22 -44 125 -3 156 31 23 100 18 128
-11 l25 -24 -1 152 c0 114 -3 147 -11 130 -23 -47 -115 -55 -153 -13 -24 27
-25 103 -1 129 37 40 132 33 154 -12 8 -17 11 12 11 118 0 107 -3 135 -11 118
-22 -46 -116 -53 -154 -12 -23 26 -23 102 0 128 38 41 132 34 154 -12 8 -17
11 13 11 123 0 110 -3 140 -11 123 -22 -46 -116 -53 -154 -12 -23 26 -23 102
0 128 38 41 132 34 154 -12 8 -17 11 6 11 100 l1 122 -25 -24 c-26 -27 -89
-34 -125 -15 -42 22 -44 125 -3 156 31 23 100 18 128 -11 l25 -24 0 124 0 124
-25 -24 c-28 -29 -97 -34 -128 -11 -41 31 -39 134 3 156 10 5 39 10 64 10 36
0 48 -5 65 -26 l21 -27 0 136 0 136 -25 -24 c-28 -29 -97 -34 -128 -11 -41 31
-39 134 3 156 36 19 99 12 125 -15 l25 -24 0 54 0 55 -4262 -1 c-2345 -1
-4227 -5 -4183 -10z m3572 -64 c28 -20 38 -66 23 -110 -14 -41 -35 -55 -85
-55 -50 0 -71 14 -85 55 -24 74 11 125 85 125 22 0 50 -7 62 -15z m230 -168
c41 -41 29 -132 -20 -155 -37 -18 -91 -8 -117 20 -23 25 -27 93 -6 120 28 38
112 47 143 15z m-230 -182 c28 -20 38 -66 23 -110 -14 -41 -35 -55 -85 -55
-50 0 -71 14 -85 55 -24 74 11 125 85 125 22 0 50 -7 62 -15z m450 -91 c13
-18 17 -39 14 -84 -5 -65 -107 -95 -156 -45 -46 45 -27 138 29 153 39 11 97
-2 113 -24z m-458 -234 c46 -24 51 -125 8 -155 -28 -19 -96 -19 -124 0 -42 30
-38 129 6 155 21 12 87 13 110 0z m661 -20 c29 -29 28 -112 -2 -140 -32 -30
-101 -28 -133 5 -32 31 -34 91 -4 129 17 22 28 26 70 26 36 0 54 -5 69 -20z
m204 -261 c22 -17 26 -28 26 -70 0 -36 -5 -54 -20 -69 -15 -15 -33 -20 -69
-20 -42 0 -53 4 -70 26 -30 38 -28 98 4 129 31 32 91 34 129 4z m-853 -45 c25
-22 33 -67 19 -109 -24 -71 -147 -71 -170 1 -19 56 1 108 50 127 24 10 81 -1
101 -19z m1064 -219 c19 -18 25 -35 25 -65 0 -55 -13 -76 -55 -90 -41 -13 -89
-2 -111 27 -16 22 -18 87 -3 114 23 44 107 52 144 14z m-1061 -135 c30 -30 29
-102 -2 -132 -29 -30 -100 -32 -131 -4 -45 40 -34 126 19 154 33 17 88 8 114
-18z m1245 -111 c17 -6 36 -19 41 -29 15 -28 12 -93 -5 -117 -30 -43 -131 -38
-155 8 -11 20 -13 79 -4 104 7 16 56 44 80 45 6 0 25 -5 43 -11z m-1248 -225
c41 -37 31 -131 -17 -153 -57 -26 -118 -5 -134 46 -19 55 2 107 50 126 24 10
81 -1 101 -19z m1489 -54 c15 -15 20 -33 20 -69 0 -42 -4 -53 -26 -70 -38 -30
-98 -28 -129 4 -33 32 -35 101 -5 133 28 30 111 31 140 2z m207 -262 c32 -30
32 -102 1 -135 -30 -32 -102 -32 -135 -1 -33 31 -32 100 2 133 32 33 98 35
132 3z m-1707 -48 c24 -13 43 -72 35 -110 -9 -39 -40 -60 -90 -60 -50 0 -81
21 -90 60 -8 36 10 96 33 110 22 12 88 13 112 0z m1915 -215 c28 -27 35 -98
12 -129 -27 -37 -124 -37 -153 1 -23 31 -18 100 11 128 34 35 96 35 130 0z
m-1915 -135 c24 -13 43 -72 35 -110 -9 -39 -40 -60 -90 -60 -50 0 -81 21 -90
60 -8 36 10 96 33 110 22 12 88 13 112 0z m2109 -115 c33 -16 41 -33 41 -81 0
-49 -14 -71 -55 -84 -42 -14 -100 1 -115 30 -14 26 -12 93 3 112 30 38 79 48
126 23z m-2110 -235 c46 -24 51 -125 8 -155 -12 -8 -40 -15 -62 -15 -52 0 -83
22 -91 65 -7 40 10 90 35 105 21 12 87 13 110 0z m2348 -46 c7 -10 13 -37 13
-61 0 -59 -33 -93 -90 -93 -57 0 -90 34 -90 93 0 24 6 51 13 60 27 38 127 38
154 1z m200 -256 c33 -31 32 -100 -2 -133 -31 -32 -91 -34 -129 -4 -35 27 -37
101 -4 136 30 32 102 32 135 1z m-2553 -19 c30 -14 50 -67 41 -108 -9 -44 -38
-64 -90 -64 -73 0 -110 53 -85 127 16 50 77 71 134 45z m2761 -244 c33 -32 35
-98 3 -132 -17 -18 -32 -23 -70 -23 -65 0 -88 23 -88 89 0 42 4 53 26 70 38
30 98 28 129 -4z m-2761 -106 c30 -14 50 -67 41 -108 -9 -44 -38 -64 -90 -64
-73 0 -110 53 -85 127 16 50 77 71 134 45z m2971 -154 c28 -28 34 -97 11 -128
-22 -29 -70 -40 -111 -27 -42 14 -55 35 -55 90 0 56 34 90 90 90 30 0 47 -6
65 -25z m-2971 -196 c30 -14 50 -67 41 -108 -9 -44 -38 -64 -90 -64 -73 0
-110 53 -85 127 16 50 77 71 134 45z m3155 -50 c17 -6 36 -19 41 -29 13 -24
13 -86 0 -109 -24 -46 -125 -51 -155 -8 -15 22 -20 82 -9 112 7 16 56 44 80
45 6 0 25 -5 43 -11z m239 -282 c32 -30 31 -99 -3 -132 -31 -32 -91 -34 -129
-4 -21 17 -26 29 -26 68 0 56 14 78 55 89 40 11 75 4 103 -21z m-3394 -8 c30
-14 50 -67 41 -108 -9 -43 -40 -66 -90 -66 -72 0 -109 56 -85 129 16 50 77 71
134 45z m3601 -254 c19 -18 25 -35 25 -65 0 -57 -34 -90 -93 -90 -62 0 -87 26
-87 90 0 64 25 90 87 90 33 0 50 -6 68 -25z m-3593 -109 c42 -31 46 -116 9
-150 -26 -24 -106 -24 -132 0 -37 34 -33 119 9 150 22 17 92 17 114 0z m3803
-151 c48 -47 23 -145 -41 -158 -37 -7 -92 10 -104 33 -5 10 -10 39 -10 64 0
36 5 48 26 65 38 30 98 28 129 -4z m-3806 -205 c46 -24 51 -125 8 -155 -12 -8
-40 -15 -62 -15 -52 0 -83 22 -91 65 -7 40 10 90 35 105 21 12 87 13 110 0z
m3994 -42 c12 -6 27 -18 34 -27 16 -21 16 -92 -1 -113 -34 -45 -124 -46 -152
-2 -19 29 -21 99 -2 121 26 32 83 42 121 21z m198 -258 c41 -11 59 -41 59 -96
0 -110 -178 -114 -182 -4 -2 54 11 80 45 95 39 17 34 17 78 5z m-4184 -65 c43
-30 38 -131 -8 -155 -10 -6 -34 -10 -54 -10 -20 0 -44 4 -54 10 -46 24 -51
125 -8 155 12 8 40 15 62 15 22 0 50 -7 62 -15z m4432 -221 c30 -38 28 -98 -4
-129 -28 -29 -97 -34 -128 -11 -26 20 -37 69 -26 111 12 43 31 54 91 55 39 0
50 -4 67 -26z m-4432 -129 c28 -20 38 -66 23 -110 -14 -41 -35 -55 -85 -55
-50 0 -71 14 -85 55 -24 74 11 125 85 125 22 0 50 -7 62 -15z m4638 -130 c33
-32 34 -93 3 -130 -18 -20 -33 -26 -64 -27 -23 0 -50 5 -62 11 -44 23 -47 125
-5 157 31 23 100 18 128 -11z"/>
<path d="M1890 5085 l0 -245 100 0 99 0 3 133 3 132 1288 3 1287 2 0 110 0
110 -1390 0 -1390 0 0 -245z"/>
<path d="M4467 4520 c-38 -10 -71 -21 -74 -23 -3 -3 4 -34 16 -69 81 -251 112
-523 76 -690 -32 -155 -117 -268 -248 -333 -135 -66 -131 -66 -996 -63 -722 3
-780 5 -831 22 -136 45 -209 104 -264 214 -103 205 -119 420 -49 673 14 52 27
103 30 115 4 17 -6 25 -69 51 l-73 31 -16 -31 c-32 -61 -79 -210 -95 -296 -20
-113 -21 -343 -1 -437 54 -253 225 -457 438 -522 134 -41 189 -43 1029 -40
l805 4 75 22 c126 39 198 80 275 157 160 159 225 387 203 703 -10 136 -37 275
-84 423 -40 124 -32 120 -147 89z"/>
<path d="M2 1518 l-2 -1518 1598 2 c878 1 1546 4 1485 5 -106 3 -113 5 -113
24 0 30 -44 69 -78 69 -31 0 -72 -32 -72 -55 0 -19 -13 -19 -125 0 -192 33
-192 33 -199 65 -7 39 -40 70 -74 70 -32 0 -72 -25 -72 -46 0 -20 -10 -18
-165 34 -113 38 -141 51 -143 67 -7 53 -14 66 -43 80 -34 18 -63 13 -96 -17
l-21 -20 -139 69 -138 69 3 37 c3 28 -2 42 -22 62 -30 30 -64 32 -98 5 l-25
-19 -99 67 c-171 116 -162 107 -156 161 4 42 1 50 -19 65 -28 19 -71 21 -98 4
-17 -11 -33 0 -135 96 l-116 108 15 29 c18 33 12 70 -16 95 -14 12 -30 15 -64
11 -46 -5 -46 -4 -95 54 -26 32 -69 87 -95 124 -44 61 -46 67 -31 84 23 25 20
77 -5 102 -16 16 -30 20 -61 17 -39 -4 -40 -3 -78 62 -20 36 -54 98 -74 139
l-37 73 20 22 c24 25 27 73 7 101 -7 11 -31 21 -56 24 l-43 6 -39 105 c-21 58
-44 124 -49 146 -10 38 -9 43 15 67 47 48 26 120 -39 133 -38 7 -37 4 -70 194
-20 112 -19 123 7 135 12 6 29 22 37 37 14 24 14 30 -2 63 -12 25 -25 37 -47
41 -29 6 -29 6 -33 88 -1 44 -4 -602 -5 -1436z"/>
<path d="M1890 2430 l0 -110 570 0 570 0 0 -630 0 -630 -570 0 -571 0 3 -113
3 -112 283 0 c155 0 779 1 1387 3 l1105 2 0 110 0 110 -710 0 -710 0 0 630 0
630 710 0 710 0 0 110 0 110 -1390 0 -1390 0 0 -110z"/>
<path d="M11943 24 l-22 -24 24 0 c20 0 25 5 25 25 0 29 1 29 -27 -1z"/>
</g>
</svg>
